<svg version="1.1" preserveAspectRatio="none" xmlns="http://www.w3.org/2000/svg" width="500" height="500" viewBox="0 0 500 500"><rect width="100%" height="100%" fill="#101010" fill-opacity="1"/><svg viewBox="159.8948 149.0656 190.1821 212" width="298.7294306603773" height="333" x="100.6353px" y="83.5px" xmlns="http://www.w3.org/2000/svg" xmlns:xlink="http://www.w3.org/1999/xlink" preserveAspectRatio="none"><defs></defs><style>.icon1 {fill:#EBEBEB;fill-opacity:1;}.icon2 {fill:#D4D4D4;fill-opacity:1;}.icon3 {fill:#A0A0A0;fill-opacity:1;}.icon3-str {stroke:#A0A0A0;stroke-opacity:1;}</style><g opacity="1" transform="rotate(0 159.8948 343.0656)">
<svg width="190.1821" height="18" x="159.8948" y="343.0656" version="1.1" preserveAspectRatio="none" viewBox="2.44 -28.32 302.6 28.64">
  <g transform="matrix(1 0 0 1 0 0)" class="icon3"><path id="id-6izo4zJp11" d="M10-28.04Q13.08-28.04 14.98-25.82Q16.88-23.60 16.88-20L16.88-20Q16.88-16.48 15.04-14.32Q13.20-12.16 10.20-12.16L10.20-12.16L6.44-12.16Q6.28-12.16 6.28-12L6.28-12L6.28-0.40Q6.28 0 5.88 0L5.88 0L2.84 0Q2.44 0 2.44-0.40L2.44-0.40L2.44-27.64Q2.44-28.04 2.84-28.04L2.84-28.04L10-28.04ZM9.40-15.24Q11.04-15.24 12.04-16.50Q13.04-17.76 13.04-19.92L13.04-19.92Q13.04-22.12 12.04-23.42Q11.04-24.72 9.40-24.72L9.40-24.72L6.44-24.72Q6.28-24.72 6.28-24.56L6.28-24.56L6.28-15.40Q6.28-15.24 6.44-15.24L6.44-15.24L9.40-15.24Z M41.64 0Q41.28 0 41.16-0.32L41.16-0.32L37.44-12.32Q37.40-12.44 37.28-12.44L37.28-12.44L34.52-12.44Q34.36-12.44 34.36-12.28L34.36-12.28L34.36-0.40Q34.36 0 33.96 0L33.96 0L30.92 0Q30.52 0 30.52-0.40L30.52-0.40L30.52-27.64Q30.52-28.04 30.92-28.04L30.92-28.04L38.08-28.04Q40.12-28.04 41.68-27.04Q43.24-26.04 44.10-24.22Q44.96-22.40 44.96-20.08L44.96-20.08Q44.96-17.56 43.90-15.70Q42.84-13.84 41.04-13.04L41.04-13.04Q40.92-12.92 40.96-12.80L40.96-12.80L45.08-0.44L45.12-0.28Q45.12 0 44.76 0L44.76 0L41.64 0ZM34.52-24.72Q34.36-24.72 34.36-24.56L34.36-24.56L34.36-15.60Q34.36-15.44 34.52-15.44L34.52-15.44L37.48-15.44Q39.12-15.44 40.12-16.70Q41.12-17.96 41.12-20.04L41.12-20.04Q41.12-22.20 40.12-23.46Q39.12-24.72 37.48-24.72L37.48-24.72L34.52-24.72Z M65.36 0.32Q62.08 0.32 60.08-1.68Q58.08-3.68 58.08-7L58.08-7L58.08-20.96Q58.08-24.28 60.08-26.30Q62.08-28.32 65.36-28.32L65.36-28.32Q68.68-28.32 70.70-26.30Q72.72-24.28 72.72-20.96L72.72-20.96L72.72-7Q72.72-3.68 70.70-1.68Q68.68 0.32 65.36 0.32L65.36 0.32ZM65.36-3Q66.96-3 67.92-4.06Q68.88-5.12 68.88-6.84L68.88-6.84L68.88-21.16Q68.88-22.88 67.92-23.94Q66.96-25 65.36-25L65.36-25Q63.80-25 62.86-23.94Q61.92-22.88 61.92-21.16L61.92-21.16L61.92-6.84Q61.92-5.12 62.86-4.06Q63.80-3 65.36-3L65.36-3Z M93.76 0.32Q90.52 0.32 88.54-1.60Q86.56-3.52 86.56-6.68L86.56-6.68L86.56-21.32Q86.56-24.48 88.54-26.40Q90.52-28.32 93.76-28.32L93.76-28.32Q97-28.32 99-26.40Q101-24.48 101-21.28L101-21.28L101-19.60Q101-19.20 100.60-19.20L100.60-19.20L97.56-19.20Q97.16-19.20 97.16-19.60L97.16-19.60L97.16-21.36Q97.16-23 96.22-24Q95.28-25 93.76-25L93.76-25Q92.24-25 91.30-24Q90.36-23 90.36-21.36L90.36-21.36L90.36-6.64Q90.36-5 91.30-4Q92.24-3 93.76-3L93.76-3Q95.28-3 96.22-4Q97.16-5 97.16-6.64L97.16-6.64L97.16-11.04Q97.16-11.20 97-11.20L97-11.20L93.96-11.20Q93.56-11.20 93.56-11.60L93.56-11.60L93.56-14.08Q93.56-14.48 93.96-14.48L93.96-14.48L100.60-14.48Q101-14.48 101-14.08L101-14.08L101-6.68Q101-3.52 99-1.60Q97 0.32 93.76 0.32L93.76 0.32Z M126.32 0Q125.96 0 125.84-0.32L125.84-0.32L122.12-12.32Q122.08-12.44 121.96-12.44L121.96-12.44L119.20-12.44Q119.04-12.44 119.04-12.28L119.04-12.28L119.04-0.40Q119.04 0 118.64 0L118.64 0L115.60 0Q115.20 0 115.20-0.40L115.20-0.40L115.20-27.64Q115.20-28.04 115.60-28.04L115.60-28.04L122.76-28.04Q124.80-28.04 126.36-27.04Q127.92-26.04 128.78-24.22Q129.64-22.40 129.64-20.08L129.64-20.08Q129.64-17.56 128.58-15.70Q127.52-13.84 125.72-13.04L125.72-13.04Q125.60-12.92 125.64-12.80L125.64-12.80L129.76-0.44L129.80-0.28Q129.80 0 129.44 0L129.44 0L126.32 0ZM119.20-24.72Q119.04-24.72 119.04-24.56L119.04-24.56L119.04-15.60Q119.04-15.44 119.20-15.44L119.20-15.44L122.16-15.44Q123.80-15.44 124.80-16.70Q125.80-17.96 125.80-20.04L125.80-20.04Q125.80-22.20 124.80-23.46Q123.80-24.72 122.16-24.72L122.16-24.72L119.20-24.72Z M155.40 0Q155.04 0 154.96-0.36L154.96-0.36L154.08-4.96Q154.08-5.04 154.02-5.08Q153.96-5.12 153.88-5.12L153.88-5.12L147.44-5.12Q147.36-5.12 147.30-5.08Q147.24-5.04 147.24-4.96L147.24-4.96L146.32-0.36Q146.28 0 145.88 0L145.88 0L142.84 0Q142.64 0 142.54-0.12Q142.44-0.24 142.48-0.44L142.48-0.44L148.44-27.64Q148.52-28 148.88-28L148.88-28L152.40-28Q152.80-28 152.84-27.64L152.84-27.64L158.88-0.44L158.88-0.36Q158.88 0 158.52 0L158.52 0L155.40 0ZM147.92-8.32Q147.92-8.16 148.04-8.16L148.04-8.16L153.32-8.16Q153.44-8.16 153.44-8.32L153.44-8.32L150.80-22Q150.76-22.12 150.72-22.12Q150.68-22.12 150.64-22L150.64-22L147.92-8.32Z M173.16 0Q172.76 0 172.76-0.40L172.76-0.40L172.76-27.60Q172.76-28 173.16-28L173.16-28L176.20-28Q176.52-28 176.64-27.68L176.64-27.68L180.72-17.96Q180.76-17.88 180.84-17.88Q180.92-17.88 180.96-17.96L180.96-17.96L185.12-27.68Q185.24-28 185.56-28L185.56-28L188.60-28Q189.00-28 189.00-27.60L189.00-27.60L189.00-0.40Q189.00 0 188.60 0L188.60 0L185.56 0Q185.16 0 185.16-0.40L185.16-0.40L185.16-18.52Q185.16-18.64 185.10-18.64Q185.04-18.64 184.96-18.56L184.96-18.56L181.24-10.64Q181.12-10.36 180.92-10.36L180.92-10.36Q180.64-10.36 180.52-10.64L180.52-10.64L176.80-18.60Q176.72-18.68 176.66-18.68Q176.60-18.68 176.60-18.56L176.60-18.56L176.60-0.40Q176.60 0 176.20 0L176.20 0L173.16 0Z M216.04 0Q215.68 0 215.60-0.36L215.60-0.36L214.72-4.96Q214.72-5.04 214.66-5.08Q214.60-5.12 214.52-5.12L214.52-5.12L208.08-5.12Q208.00-5.12 207.94-5.08Q207.88-5.04 207.88-4.96L207.88-4.96L206.96-0.36Q206.92 0 206.52 0L206.52 0L203.48 0Q203.28 0 203.18-0.12Q203.08-0.24 203.12-0.44L203.12-0.44L209.08-27.64Q209.16-28 209.52-28L209.52-28L213.04-28Q213.44-28 213.48-27.64L213.48-27.64L219.52-0.44L219.52-0.36Q219.52 0 219.16 0L219.16 0L216.04 0ZM208.56-8.32Q208.56-8.16 208.68-8.16L208.68-8.16L213.96-8.16Q214.08-8.16 214.08-8.32L214.08-8.32L211.44-22Q211.40-22.12 211.36-22.12Q211.32-22.12 211.28-22L211.28-22L208.56-8.32Z M233.60 0Q233.20 0 233.20-0.40L233.20-0.40L233.20-27.60Q233.20-28 233.60-28L233.60-28L240.16-28Q243.48-28 245.44-25.96Q247.40-23.92 247.40-20.44L247.40-20.44L247.40-7.56Q247.40-4.08 245.44-2.04Q243.48 0 240.16 0L240.16 0L233.60 0ZM237.04-3.48Q237.04-3.32 237.20-3.32L237.20-3.32L240.12-3.36Q241.64-3.36 242.56-4.54Q243.48-5.72 243.52-7.76L243.52-7.76L243.52-20.24Q243.52-22.28 242.60-23.48Q241.68-24.68 240.12-24.68L240.12-24.68L237.20-24.68Q237.04-24.68 237.04-24.52L237.04-24.52L237.04-3.48Z M268.68 0.32Q265.40 0.32 263.40-1.68Q261.40-3.68 261.40-7L261.40-7L261.40-20.96Q261.40-24.28 263.40-26.30Q265.40-28.32 268.68-28.32L268.68-28.32Q272-28.32 274.02-26.30Q276.04-24.28 276.04-20.96L276.04-20.96L276.04-7Q276.04-3.68 274.02-1.68Q272 0.32 268.68 0.32L268.68 0.32ZM268.68-3Q270.28-3 271.24-4.06Q272.20-5.12 272.20-6.84L272.20-6.84L272.20-21.16Q272.20-22.88 271.24-23.94Q270.28-25 268.68-25L268.68-25Q267.12-25 266.18-23.94Q265.24-22.88 265.24-21.16L265.24-21.16L265.24-6.84Q265.24-5.12 266.18-4.06Q267.12-3 268.68-3L268.68-3Z M301.56 0Q301.20 0 301.08-0.32L301.08-0.32L297.36-12.32Q297.32-12.44 297.20-12.44L297.20-12.44L294.44-12.44Q294.28-12.44 294.28-12.28L294.28-12.28L294.28-0.40Q294.28 0 293.88 0L293.88 0L290.84 0Q290.44 0 290.44-0.40L290.44-0.40L290.44-27.64Q290.44-28.04 290.84-28.04L290.84-28.04L298.00-28.04Q300.04-28.04 301.60-27.04Q303.16-26.04 304.02-24.22Q304.88-22.40 304.88-20.08L304.88-20.08Q304.88-17.56 303.82-15.70Q302.76-13.84 300.96-13.04L300.96-13.04Q300.84-12.92 300.88-12.80L300.88-12.80L305.00-0.44L305.04-0.28Q305.04 0 304.68 0L304.68 0L301.56 0ZM294.44-24.72Q294.28-24.72 294.28-24.56L294.28-24.56L294.28-15.60Q294.28-15.44 294.44-15.44L294.44-15.44L297.40-15.44Q299.04-15.44 300.04-16.70Q301.04-17.96 301.04-20.04L301.04-20.04Q301.04-22.20 300.04-23.46Q299.04-24.72 297.40-24.72L297.40-24.72L294.44-24.72Z"/></g>
</svg>
</g><g opacity="1" transform="rotate(0 219.4143 149.0656)">
<svg width="71.1431" height="84" x="219.4143" y="149.0656" version="1.1" preserveAspectRatio="none" viewBox="32.458580017089844 19.999998092651367 135.3414306640625 159.79998779296875">
  <g transform="matrix(-1 0 0 1 200.2585906982422 0)"><g><path d="M167.5 109.2v-.5l-40.6-70c-.2-.3-.5-.5-.8-.5H94L75.4 20.3s-.1 0-.1-.1l-.1-.1c-.1 0-.2-.1-.3-.1h-.5c-.1 0-.1 0-.2.1L44.4 38.3c-.1.1-.2.1-.2.2-.2.2-.2.3-.2.4L32.5 89.7v.4c-.1.2 0 .5.1.7l41.2 70.4c0 .1.1.1.1.2.1.1.3.2.4.2H110l15.3 17.9c.1.1.2.2.3.2h.1c.1 0 .2.1.4.1h.3c.1 0 .1 0 .2-.1h.1l29.8-18.2.1-.1c.1 0 .1-.1.2-.1l.1-.1c0-.1.1-.1.1-.2v-.1l10.8-51.8c-.3.2-.3.2-.3.1zM155 159.9h-16.8l26.2-45.2-9.4 45.2zm-2.6 1.9l-23.7 14.4 8.4-14.4h15.3zM99 146.2L36.2 91l126.7 18.5L99 146.2zm-24 13.4L36.6 93.9l60.6 53.3L75 159.6zm-29.5-119l12.2 7L35.6 85l9.9-44.4zM60.4 47l4.1-6.9h28.8l67.5 64.8L60.4 47zm100.8 60.3L35.5 88.9l23.9-40.3 101.8 58.7zM58.7 46l-10.2-5.9h13.7L58.7 46zm-10.4-7.8l23.6-14.4-8.5 14.4H48.3zm116.1 72.7l-28.4 49h-25.1l-10.5-12.3 64-36.7zm-39-70.8l36.9 63.6L96 40.1h29.4zm-59.8-1.9l9.3-15.7 16.4 15.7H65.6zm12.8 121.7l20.3-11.3 9.7 11.3h-30zm56.5 1.9l-9 15.6-13.3-15.6h22.3z" data-color="1" class="icon1"></path></g></g>
</svg>
</g><g opacity="1" transform="rotate(0 201.4217 259.0656)">
<svg width="107.1283" height="60" x="201.4217" y="259.0656" version="1.1" preserveAspectRatio="none" viewBox="2.16 -28.04 50.120000000000005 28.08">
  <g transform="matrix(1 0 0 1 0 0)" class="icon1"><path id="id-D6z1nYkh3" d="M2.64 0Q2.44 0 2.30-0.14Q2.16-0.28 2.16-0.48L2.16-0.48L2.16-27.52Q2.16-27.72 2.30-27.86Q2.44-28 2.64-28L2.64-28L9.48-28Q12.92-28 14.98-25.92Q17.04-23.84 17.04-20.36L17.04-20.36L17.04-7.64Q17.04-4.16 14.98-2.08Q12.92 0 9.48 0L9.48 0L2.64 0ZM6.80-4.20Q6.80-4 7-4L7-4L9.40-4.04Q10.72-4.04 11.54-5.10Q12.36-6.16 12.40-7.92L12.40-7.92L12.40-20.08Q12.40-21.88 11.58-22.94Q10.76-24 9.36-24L9.36-24L7-24Q6.80-24 6.80-23.80L6.80-23.80L6.80-4.20Z M26.52 0.04Q25.24 0.04 24.40-0.84Q23.56-1.72 23.56-3.04L23.56-3.04Q23.56-4.28 24.48-5.18Q25.40-6.08 26.52-6.08L26.52-6.08Q27.68-6.08 28.60-5.18Q29.52-4.28 29.52-3.04L29.52-3.04Q29.52-1.76 28.66-0.86Q27.80 0.04 26.52 0.04L26.52 0.04Z M48 0Q47.60 0 47.48-0.40L47.48-0.40L44.04-11.92Q43.96-12.08 43.84-12.08L43.84-12.08L41.76-12.08Q41.56-12.08 41.56-11.88L41.56-11.88L41.56-0.48Q41.56-0.28 41.42-0.14Q41.28 0 41.08 0L41.08 0L37.40 0Q37.20 0 37.06-0.14Q36.92-0.28 36.92-0.48L36.92-0.48L36.92-27.56Q36.92-27.76 37.06-27.90Q37.20-28.04 37.40-28.04L37.40-28.04L44.92-28.04Q47.04-28.04 48.66-27.02Q50.28-26 51.18-24.14Q52.08-22.28 52.08-19.88L52.08-19.88Q52.08-17.40 51.12-15.58Q50.16-13.76 48.44-12.84L48.44-12.84Q48.28-12.80 48.32-12.60L48.32-12.60L52.24-0.56Q52.28-0.48 52.28-0.36L52.28-0.36Q52.28 0 51.84 0L51.84 0L48 0ZM41.76-24.04Q41.56-24.04 41.56-23.84L41.56-23.84L41.56-15.88Q41.56-15.68 41.76-15.68L41.76-15.68L44.20-15.68Q45.64-15.68 46.54-16.80Q47.44-17.92 47.44-19.80L47.44-19.80Q47.44-21.76 46.54-22.90Q45.64-24.04 44.20-24.04L44.20-24.04L41.76-24.04Z"/></g>
</svg>
</g></svg></svg>